<?xml version="1.0" encoding="UTF-8" standalone="no"?>
<!-- Created with Inkscape (http://www.inkscape.org/) -->

<svg
   width="210mm"
   height="297mm"
   viewBox="0 0 793.70081 1122.5197"
   version="1.1"
   id="svg5"
   inkscape:version="1.1.2 (1:1.1+202202050942+0a00cf5339)"
   sodipodi:docname="A.svg"
   xmlns:inkscape="http://www.inkscape.org/namespaces/inkscape"
   xmlns:sodipodi="http://sodipodi.sourceforge.net/DTD/sodipodi-0.dtd"
   xmlns="http://www.w3.org/2000/svg"
   xmlns:svg="http://www.w3.org/2000/svg">
  <sodipodi:namedview
     id="namedview7"
     pagecolor="#ffffff"
     bordercolor="#666666"
     borderopacity="1.0"
     inkscape:pageshadow="2"
     inkscape:pageopacity="0.0"
     inkscape:pagecheckerboard="0"
     inkscape:document-units="mm"
     showgrid="false"
     showguides="false"
     inkscape:zoom="0.51625248"
     inkscape:cx="396.124"
     inkscape:cy="417.43141"
     inkscape:window-width="1852"
     inkscape:window-height="1016"
     inkscape:window-x="0"
     inkscape:window-y="0"
     inkscape:window-maximized="1"
     inkscape:current-layer="layer1" />
  <defs
     id="defs2">
    <rect
       x="396.84593"
       y="682.24596"
       width="495.99485"
       height="85.663068"
       id="rect236063" />
    <rect
       x="377.17295"
       y="719.85835"
       width="191.74262"
       height="112.0753"
       id="rect231321" />
    <rect
       x="494.25022"
       y="705.44499"
       width="390.60175"
       height="53.596446"
       id="rect214857" />
    <rect
       x="232.36301"
       y="693.5677"
       width="1015.6349"
       height="152.89755"
       id="rect123525" />
    <rect
       x="417.75438"
       y="888.0764"
       width="129.48182"
       height="66.456718"
       id="rect115817" />
    <rect
       x="79.095382"
       y="306.28854"
       width="625.63628"
       height="167.86321"
       id="rect96725" />
    <rect
       x="140.04021"
       y="687.5063"
       width="90.079917"
       height="128.88746"
       id="rect61702" />
    <rect
       x="21.301812"
       y="329.5697"
       width="77.295466"
       height="126.76232"
       id="rect58194" />
    <rect
       x="154.49"
       y="518.14036"
       width="520.64678"
       height="139.32809"
       id="rect32758" />
    <rect
       x="212.98447"
       y="237.91976"
       width="222.85317"
       height="166.25955"
       id="rect2079" />
    <mask
       maskUnits="userSpaceOnUse"
       id="mask186732">
      <path
         id="mask-powermask-path-effect186742_box"
         style="fill:#ffffff;fill-opacity:1"
         d="M 213.21033,283.89041 H 788.70514 V 859.38522 H 213.21033 Z" />
      <g
         id="g186740"
         transform="matrix(0,-0.7082388,1,0,-92.62,918.55115)"
         style="display:inline"
         clip-path="none">
        <g
           id="g186738"
           transform="matrix(0,2.1825453,-5.7597669,0,3671.8999,-709.95364)"
           style="fill:#e3dedb">
          <text
             xml:space="preserve"
             style="font-style:normal;font-variant:normal;font-weight:normal;font-stretch:normal;font-size:194.808px;line-height:1.25;font-family:Ubuntu;-inkscape-font-specification:Ubuntu;display:inline;fill:#e3dedb;fill-opacity:1;stroke:none;stroke-width:4.87022"
             x="-626.6228"
             y="691.32886"
             id="text186736"
             transform="matrix(-1.1399316,0.00534617,0.00694729,0.87721304,0,0)"><tspan
               sodipodi:role="line"
               id="tspan186734"
               x="-626.6228"
               y="691.32886"
               style="fill:#e3dedb;stroke-width:4.87022">{</tspan></text>
        </g>
      </g>
    </mask>
    <filter
       id="mask-powermask-path-effect186742_inverse"
       inkscape:label="filtermask-powermask-path-effect186742"
       style="color-interpolation-filters:sRGB"
       height="100"
       width="100"
       x="-50"
       y="-50">
      <feColorMatrix
         id="mask-powermask-path-effect186742_primitive1"
         values="1"
         type="saturate"
         result="fbSourceGraphic" />
      <feColorMatrix
         id="mask-powermask-path-effect186742_primitive2"
         values="-1 0 0 0 1 0 -1 0 0 1 0 0 -1 0 1 0 0 0 1 0 "
         in="fbSourceGraphic" />
    </filter>
    <rect
       x="377.17294"
       y="719.85834"
       width="191.74261"
       height="112.0753"
       id="rect231321-1" />
  </defs>
  <g
     inkscape:label="Camada 1"
     inkscape:groupmode="layer"
     id="layer1"
     style="display:inline">
    <path
       style="display:inline;fill:#c8b7b7;fill-opacity:1;stroke:none;stroke-width:0;stroke-miterlimit:4;stroke-dasharray:none"
       id="rect158250"
       width="573.49481"
       height="573.49481"
       x="214.21033"
       y="284.89041"
       clip-path="none"
       mask="url(#mask186732)"
       sodipodi:type="rect"
       d="M 214.21033,284.89041 H 787.70514 V 858.38522 H 214.21033 Z"
       transform="matrix(0,1.9616954,-1.3877955,0,1192.328,-418.56534)" />
    <g
       aria-label="}"
       id="text197405"
       style="font-size:363.359px;line-height:1.25;stroke-width:9.08399"
       transform="matrix(1.8851702,0,0,1.9687986,-654.90898,-548.07428)" />
    <text
       xml:space="preserve"
       style="font-style:normal;font-weight:normal;font-size:28.3296px;line-height:1.25;font-family:sans-serif;fill:#000000;fill-opacity:1;stroke:none;stroke-width:0.708239"
       x="496.13504"
       y="1040.8497"
       id="text279030"><tspan
         sodipodi:role="line"
         id="tspan279028"
         x="496.13504"
         y="1040.8497"
         style="font-style:normal;font-variant:normal;font-weight:normal;font-stretch:normal;font-family:Ubuntu;-inkscape-font-specification:Ubuntu;stroke-width:0.708239">www.eutranet.com</tspan></text>
  </g>
  <g
     inkscape:groupmode="layer"
     id="layer2"
     inkscape:label="Camada 2"
     style="display:inline">
    <g
       id="g276694"
       transform="matrix(2.3505236,0,0,2.3505236,-596.21246,-599.24185)">
      <g
         id="g276666">
        <g
           id="g186524"
           transform="matrix(1.0525815,0,0,1.0525815,-194.33627,-85.897947)"
           style="fill:#483737">
          <g
             id="g202448"
             transform="translate(137.52807,-37.343729)"
             style="fill:#483737">
            <g
               id="g208286"
               transform="matrix(0.63259001,0,0,0.63259001,200.19145,183.90666)"
               style="fill:#483737">
              <g
                 aria-label="software &amp; i18n"
                 transform="matrix(1.332543,0,0,1.332543,-139.17718,-199.70744)"
                 id="text32756"
                 style="font-size:40px;line-height:1.25;font-family:'Ubuntu Mono';-inkscape-font-specification:'Ubuntu Mono';white-space:pre;shape-inside:url(#rect32758);display:inline;fill:#483737">
                <path
                   d="m 295.96868,546.36453 q 0,-0.99999 -0.84,-1.63999 -0.8,-0.64 -2.04,-1.12 -1.2,-0.47999 -2.64,-0.91999 -1.44,-0.47999 -2.68,-1.15999 -1.2,-0.67999 -2.04,-1.67999 -0.8,-1 -0.8,-2.59999 0,-2.23999 1.8,-3.71997 1.84,-1.52 5.72,-1.52 1.52,0 3.12,0.24001 1.64,0.2 2.8,0.55999 l -0.6,2.95998 q -0.32,-0.15999 -0.88,-0.31999 -0.56,-0.2 -1.28,-0.32 -0.72,-0.16 -1.56,-0.24 -0.8,-0.08 -1.56,-0.08 -4.32,0 -4.32,2.35998 0,0.83999 0.8,1.44 0.84,0.56 2.08,1.03999 1.24,0.48 2.68,0.99999 1.44,0.48 2.68,1.2 1.24,0.71999 2.04,1.75998 0.84,1 0.84,2.55999 0,2.51998 -1.96,3.91998 -1.96,1.35999 -6.2,1.35999 -1.92,0 -3.52,-0.32001 -1.6,-0.31999 -3.04,-0.95999 l 0.64,-2.99998 q 1.4,0.64 2.92,1.08 1.56,0.39999 3.32,0.39999 4.52,0 4.52,-2.27998 z"
                   id="path112911"
                   style="fill:#483737;stroke-width:1" />
                <path
                   d="m 320.32861,541.72455 q 0,2.19999 -0.64,3.99998 -0.6,1.75999 -1.72,3.03999 -1.12,1.27998 -2.68,1.99998 -1.56,0.68 -3.4,0.68 -1.8,0 -3.36,-0.68 -1.52,-0.72 -2.64,-1.99998 -1.12,-1.28 -1.76,-3.03999 -0.6,-1.79999 -0.6,-3.99998 0,-2.19999 0.6,-3.99997 0.64,-1.79999 1.76,-3.03998 1.12,-1.27999 2.64,-1.95999 1.56,-0.72 3.36,-0.72 1.84,0 3.4,0.72 1.56,0.68 2.68,1.95999 1.12,1.23999 1.72,3.03998 0.64,1.79998 0.64,3.99997 z m -3.4,0 q 0,-3.15998 -1.36,-4.95996 -1.36,-1.83999 -3.68,-1.83999 -2.28,0 -3.64,1.83999 -1.32,1.79998 -1.32,4.95996 0,3.11999 1.32,4.95998 1.36,1.79998 3.64,1.79998 2.32,0 3.68,-1.79998 1.36,-1.83999 1.36,-4.95998 z"
                   id="path112913"
                   style="fill:#483737;stroke-width:1" />
                <path
                   d="m 328.36853,551.0045 v -15.79991 h -3.92 v -2.75997 h 3.92 v -1.67999 q 0,-2.16 0.6,-3.55998 0.6,-1.44 1.56,-2.31999 1,-0.87999 2.28,-1.23999 1.32,-0.36 2.76,-0.36 1.44,0 2.88,0.32 1.48,0.31999 2.76,0.76 l -0.6,2.83998 q -0.88,-0.44 -2.2,-0.76 -1.32,-0.32 -2.68,-0.32 -0.84,0 -1.6,0.24 -0.72,0.2 -1.28,0.75999 -0.56,0.52 -0.88,1.44 -0.32,0.87999 -0.32,2.23998 v 1.64 h 7.48 v 2.75997 h -7.48 v 15.79991 z"
                   id="path112915"
                   style="fill:#483737;stroke-width:1" />
                <path
                   d="m 351.64846,532.44462 h 7.84 v 2.75997 h -7.84 v 8.63995 q 0,1.39999 0.2,2.27999 0.2,0.87999 0.64,1.43999 0.48,0.52 1.2,0.71999 0.72,0.2 1.76,0.2 1.44,0 2.32,-0.23999 0.88,-0.24 1.68,-0.64001 l 0.48,2.79999 q -0.56,0.24 -1.8,0.64 -1.2,0.4 -3,0.4 -2.08,0 -3.4,-0.48001 -1.32,-0.47999 -2.08,-1.43998 -0.72,-0.95999 -1,-2.35999 -0.28,-1.43999 -0.28,-3.31998 v -8.63995 h -3.92 v -2.75997 h 3.92 v -5.19998 l 3.28,-0.55999 z"
                   id="path112917"
                   style="fill:#483737;stroke-width:1" />
                <path
                   d="m 375.64838,551.0045 q -0.6,-1.36 -1.04,-2.47999 -0.44,-1.11999 -0.88,-2.23999 -0.4,-1.11998 -0.84,-2.31998 -0.4,-1.23999 -0.96,-2.79998 -0.56,1.55999 -1,2.79998 -0.44,1.2 -0.88,2.31998 -0.4,1.12 -0.88,2.23999 -0.44,1.11999 -1.04,2.47999 h -2.48 q -1.12,-4.91998 -1.88,-9.71994 -0.72,-4.83997 -1.08,-8.83994 h 3.12 q 0.12,1.55998 0.24,3.07997 0.16,1.47999 0.36,3.11999 0.2,1.63999 0.44,3.55998 0.28,1.91998 0.6,4.31997 0.64,-1.6 1.08,-2.79999 0.44,-1.19999 0.8,-2.27998 0.36,-1.08 0.68,-2.19999 0.36,-1.11999 0.76,-2.51998 h 2.48 q 0.4,1.39999 0.72,2.51998 0.32,1.11999 0.68,2.19999 0.36,1.07999 0.76,2.27998 0.4,1.19999 1,2.75999 0.36,-2.19999 0.64,-4.07998 0.28,-1.87998 0.48,-3.51998 0.2,-1.67999 0.36,-3.23997 0.16,-1.55999 0.28,-3.19998 h 3 q -0.2,1.99998 -0.48,4.27997 -0.28,2.27999 -0.68,4.67996 -0.4,2.39999 -0.88,4.87997 -0.48,2.43999 -1,4.71998 z"
                   id="path112919"
                   style="fill:#483737;stroke-width:1" />
                <path
                   d="m 392.1283,548.64451 q 1.24,0 2.2,-0.08 1,-0.08 1.64,-0.2 v -5.51997 q -0.64,-0.2 -1.56,-0.32 -0.88,-0.12 -1.88,-0.12 -0.92,0 -1.8,0.16 -0.88,0.12 -1.56,0.48 -0.68,0.35999 -1.12,0.95999 -0.44,0.55999 -0.44,1.43999 0,1.8 1.2,2.51998 1.24,0.68 3.32,0.68 z m -0.32,-16.6399 q 2.08,0 3.48,0.52 1.44,0.52 2.32,1.44 0.88,0.91999 1.24,2.23998 0.36,1.31999 0.36,2.87998 v 11.59993 q -1.16,0.2 -3.08,0.47999 -1.88,0.28001 -3.88,0.28001 -1.52,0 -2.96,-0.28001 -1.44,-0.23999 -2.56,-0.87999 -1.12,-0.67999 -1.8,-1.83999 -0.68,-1.15999 -0.68,-2.95998 0,-1.59998 0.68,-2.67998 0.72,-1.11999 1.8,-1.79999 1.12,-0.67999 2.52,-0.96 1.44,-0.31999 2.88,-0.31999 1.96,0 3.84,0.44 v -0.92 q 0,-0.83999 -0.2,-1.59999 -0.16,-0.8 -0.68,-1.43999 -0.48,-0.64 -1.36,-1 -0.84,-0.39999 -2.2,-0.39999 -1.72,0 -3,0.24 -1.28,0.24 -1.96,0.47999 l -0.4,-2.71998 q 0.68,-0.32 2.24,-0.55999 1.6,-0.24001 3.4,-0.24001 z"
                   id="path112921"
                   style="fill:#483737;stroke-width:1" />
                <path
                   d="m 406.20823,551.0045 v -17.55989 q 4.08,-1.39999 8.24,-1.39999 1.28,0 2.44,0.11999 1.16,0.08 2.56,0.4 l -0.6,2.91998 q -1.28,-0.35999 -2.28,-0.43999 -0.96,-0.12 -2.12,-0.12 -2.44,0 -4.96,0.68 v 15.3999 z"
                   id="path112923"
                   style="fill:#483737;stroke-width:1" />
                <path
                   d="m 432.28815,532.00461 q 3.76,0 5.8,2.35999 2.04,2.31998 2.04,7.07996 v 1.15999 h -13.28 q 0.2,2.87998 1.88,4.39997 1.72,1.47999 4.8,1.47999 1.76,0 3,-0.27999 1.24,-0.28 1.88,-0.60001 l 0.44,2.79999 q -0.6,0.32 -2.16,0.68 -1.56,0.36 -3.52,0.36 -2.4,0 -4.24,-0.72 -1.8,-0.76 -3,-2.03999 -1.2,-1.27999 -1.8,-3.03998 -0.6,-1.79999 -0.6,-3.87998 0,-2.47998 0.76,-4.31997 0.76,-1.83998 2,-3.03998 1.24,-1.19999 2.8,-1.79998 1.56,-0.60001 3.2,-0.60001 z m 4.48,7.91996 q 0,-2.35999 -1.24,-3.71998 -1.24,-1.39999 -3.28,-1.39999 -1.16,0 -2.12,0.44 -0.92,0.43999 -1.6,1.15999 -0.68,0.72 -1.08,1.63999 -0.4,0.91999 -0.52,1.87999 z"
                   id="path112925"
                   style="fill:#483737;stroke-width:1" />
                <path
                   d="m 342.45018,576.87491 q 0.68,0.8 1.4,1.63999 0.76,0.79999 1.52,1.71999 0.32,-1.12 0.56,-2.43999 0.24,-1.31999 0.36,-2.91998 l 2.76,0.36 q -0.24,2.31998 -0.72,4.15998 -0.44,1.79998 -1.12,3.27997 0.92,1.27999 1.76,2.63998 0.84,1.36 1.52,2.87999 h -3.48 q -0.68,-1.39999 -1.52,-2.67999 -1.28,1.6 -2.88,2.31999 -1.56,0.67999 -3.28,0.67999 -1.52,0 -2.72,-0.47999 -1.2,-0.52 -2.04,-1.4 -0.84,-0.87998 -1.32,-2.03998 -0.44,-1.15999 -0.44,-2.43999 0,-1.87999 0.96,-3.79997 1,-1.91999 3.12,-3.55998 -1.04,-1.39999 -1.68,-2.83998 -0.64,-1.44 -0.64,-2.95999 0,-1.55998 0.48,-2.71997 0.52,-1.16 1.36,-1.87999 0.84,-0.76 1.92,-1.12 1.12,-0.39999 2.28,-0.39999 1.04,0 2.04,0.31999 1,0.32 1.76,1 0.76,0.63999 1.2,1.59998 0.48,0.96 0.48,2.19999 0,1.83999 -1.2,3.79998 -1.2,1.91998 -3.8,3.55998 z m -4,-0.08 q -1.16,1.03999 -1.76,2.39999 -0.56,1.35999 -0.56,2.63998 0,1.55999 0.8,2.59999 0.8,0.99999 1.96,1.27998 1.16,0.24001 2.52,-0.31999 1.36,-0.60001 2.48,-2.19999 -1.32,-1.79999 -2.76,-3.31998 -1.4,-1.55999 -2.68,-3.07998 z m 4.64,-8.43995 q 0,-1.43999 -0.8,-2.15999 -0.76,-0.71999 -1.76,-0.71999 -1.04,0 -1.96,0.83999 -0.88,0.8 -0.88,2.43999 0,1.15999 0.36,2.15999 0.36,0.99999 1.52,2.51998 1.92,-1.19999 2.72,-2.55999 0.8,-1.35999 0.8,-2.51998 z"
                   id="path112927"
                   style="fill:#483737;stroke-width:1" />
                <path
                   d="m 370.54573,566.75497 q -1.04,0 -1.8,-0.71999 -0.76,-0.72 -0.76,-1.95999 0,-1.23999 0.76,-1.95999 0.76,-0.71999 1.8,-0.71999 1.08,0 1.8,0.71999 0.76,0.72 0.76,1.95999 0,1.23999 -0.76,1.95999 -0.72,0.71999 -1.8,0.71999 z m -0.84,5.63996 h -5.36 v -2.75997 h 8.64 v 11.39992 q 0,2.75998 0.76,3.71998 0.76,0.91999 2.28,0.91999 1.16,0 2.12,-0.27999 1,-0.28 1.56,-0.60001 l 0.48,2.79999 q -0.24,0.12 -0.68,0.32 -0.44,0.16 -1.04,0.32 -0.56,0.16 -1.28,0.27999 -0.68,0.12001 -1.44,0.12001 -1.76,0 -2.92,-0.48001 -1.16,-0.47999 -1.88,-1.43998 -0.68,-0.95999 -0.96,-2.35999 -0.28,-1.43999 -0.28,-3.31998 z"
                   id="path112929"
                   style="fill:#483737;stroke-width:1" />
                <path
                   d="m 385.18565,568.55496 q 2.04,-0.79999 3.96,-1.99999 1.92,-1.23999 3.56,-3.11998 h 2.32 v 21.95987 h 4.68 v 2.79998 h -13.32 v -2.79998 h 5.36 v -17.3599 q -0.44,0.4 -1.08,0.84 -0.6,0.4 -1.36,0.79999 -0.72,0.4 -1.52,0.76 -0.8,0.36 -1.56,0.59999 z"
                   id="path112931"
                   style="fill:#483737;stroke-width:1" />
                <path
                   d="m 420.14559,581.75487 q 0,3.11999 -2,5.03998 -1.96,1.91998 -6,1.91998 -2.32,0 -3.84,-0.59999 -1.52,-0.64 -2.44,-1.59999 -0.88,-1 -1.28,-2.19999 -0.36,-1.19999 -0.36,-2.35999 0,-2.11998 1.16,-3.75997 1.16,-1.63999 2.76,-2.63999 -3.4,-1.91998 -3.4,-5.87996 0,-1.35999 0.52,-2.59998 0.52,-1.23999 1.48,-2.15998 0.96,-0.92 2.32,-1.48 1.4,-0.55999 3.12,-0.55999 2,0 3.4,0.59999 1.44,0.6 2.32,1.55999 0.88,0.91999 1.28,2.07999 0.4,1.11999 0.4,2.19998 0,2.11999 -1.08,3.67999 -1.08,1.51999 -2.48,2.43998 4.12,1.95998 4.12,6.31995 z m -12.72,0.24001 q 0,0.63999 0.24,1.35999 0.24,0.67999 0.8,1.27999 0.56,0.6 1.48,0.99999 0.92,0.36 2.24,0.36 1.24,0 2.12,-0.32 0.92,-0.36 1.48,-0.91999 0.6,-0.6 0.88,-1.31999 0.28,-0.72 0.28,-1.43999 0,-2.27999 -1.64,-3.47998 -1.64,-1.24 -4.52,-1.87999 -1.6,0.88 -2.48,2.19999 -0.88,1.31999 -0.88,3.15998 z m 8.96,-12.67993 q 0,-0.51999 -0.24,-1.15999 -0.24,-0.68 -0.76,-1.19999 -0.48,-0.55999 -1.28,-0.91999 -0.8,-0.40001 -1.92,-0.40001 -1.16,0 -1.96,0.36 -0.76,0.36 -1.28,0.92 -0.52,0.52 -0.76,1.2 -0.2,0.63999 -0.2,1.27998 0,1.63999 1.16,3.07999 1.2,1.39998 3.92,2.03999 1.52,-0.88 2.4,-2.07999 0.92,-1.2 0.92,-3.11999 z"
                   id="path112933"
                   style="fill:#483737;stroke-width:1" />
                <path
                   d="m 425.0255,570.15495 q 1.8,-0.44 3.56,-0.68 1.8,-0.23999 3.36,-0.23999 3.72,0 5.6,1.91999 1.92,1.91998 1.92,6.15996 v 10.87993 h -3.28 V 577.9149 q 0,-1.79999 -0.32,-2.91998 -0.32,-1.12 -0.92,-1.71999 -0.56,-0.63999 -1.4,-0.88 -0.8,-0.23999 -1.76,-0.23999 -0.8,0 -1.72,0.12 -0.88,0.08 -1.72,0.23999 v 15.67991 h -3.32 z"
                   id="path112935"
                   style="fill:#483737;stroke-width:1" />
              </g>
              <g
                 id="g153928"
                 transform="matrix(1.3566107,0,0,-1.3566107,322.70347,1640.5872)"
                 style="display:inline;fill:#483737">
                <path
                   d="m -76.150171,900.09723 q 0,-12.05448 3.49405,-20.96431 3.49405,-9.08454 9.25924,-15.02443 5.76519,-5.93989 13.2774,-8.90984 7.51221,-2.96994 15.37383,-2.96994 18.34378,0 28.1271304,11.53037 9.78335,11.35568 9.78335,34.76583 0,1.04822 0,2.79524 0,1.57233 -0.17471,2.96995 H -59.204021 q 1.04822,14.15091 8.21103,21.48842 7.16281,7.33751 22.36194,7.33751 8.56043,0 14.32561,-1.39762 5.9398904,-1.57232 8.9098404,-2.96994 l 2.27113,13.6268 q -2.96994,1.57233 -10.4821604,3.31935 -7.33751,1.74703 -16.77145,1.74703 -11.87978,0 -20.61491,-3.49405 -8.56043,-3.66876 -14.15092,-9.95805 -5.59048,-6.2893 -8.38572,-14.84973 -2.62054,-8.73513 -2.62054,-19.04259 z m 62.36884,-8.90983 q 0.1747,-11.00627 -5.59048,-17.99437 -5.59049,-7.16281 -15.54854,-7.16281 -5.59048,0 -9.95805,2.27113 -4.19286,2.09643 -7.16281,5.59049 -2.96994,3.49405 -4.71697,8.03632 -1.57232,4.54227 -2.09643,9.25924 z"
                   style="font-size:40px;line-height:1.25;font-family:Ubuntu;-inkscape-font-specification:Ubuntu;letter-spacing:-2.52964px;white-space:pre;shape-inside:url(#rect96725);fill:#483737;stroke-width:4.36757"
                   id="path112876-8" />
                <path
                   d="m 91.853199,940.45355 q -5.59048,1.39762 -14.84972,2.96994 -9.08454,1.57233 -21.13902,1.57233 -10.48216,0 -17.64497,-2.96995 -7.16281,-3.14464 -11.53038,-8.73513 -4.36756,-5.59048 -6.28929,-13.1027 -1.92173,-7.68691 -1.92173,-16.94615 v -51.01318 h 16.24735 v 47.51912 q 0,16.59675 5.24108,23.75956 5.24107,7.16281 17.64496,7.16281 2.62054,0 5.41578,-0.1747 2.79525,-0.1747 5.24108,-0.34941 2.44584,-0.3494 4.36757,-0.5241 2.09643,-0.34941 2.96994,-0.69882 v -76.69446 h 16.24735 z"
                   style="font-size:40px;line-height:1.25;font-family:Ubuntu;-inkscape-font-specification:Ubuntu;letter-spacing:-2.52964px;white-space:pre;shape-inside:url(#rect96725);fill:#483737;stroke-width:4.36757"
                   id="path112878-8" />
              </g>
              <text
                 xml:space="preserve"
                 transform="matrix(1.1409763,0,0,1.1409763,-246.3225,-174.75944)"
                 id="text231319"
                 style="font-style:normal;font-weight:normal;font-size:40px;line-height:1.25;font-family:sans-serif;white-space:pre;shape-inside:url(#rect231321);fill:#483737;fill-opacity:1;stroke:none"><tspan
                   x="377.17383"
                   y="867.32422"
                   id="tspan290718"><tspan
                     dx="0 32.714844 32.714844 29.042969 12.714844 24.609375 25.351562 15.683594 16.445312 24.511719 12.714844 24.609375 15.683594"
                     id="tspan290716">www.eutra,et/</tspan></tspan></text>
            </g>
          </g>
        </g>
        <g
           aria-label="::"
           id="text272798"
           style="font-size:40px;line-height:1.25;fill:#483737"
           transform="matrix(2.0280533,0,0,2.0280533,-284.22862,-1165.7969)">
          <path
             d="m 379.08734,764.92167 q 0,1.08 -0.72,1.88 -0.72,0.8 -1.96,0.8 -1.24,0 -1.96,-0.8 -0.72,-0.8 -0.72,-1.88 0,-1.08 0.72,-1.88 0.72,-0.8 1.96,-0.8 1.24,0 1.96,0.8 0.72,0.8 0.72,1.88 z m 0,-15.96 q 0,1.08 -0.72,1.88 -0.72,0.8 -1.96,0.8 -1.24,0 -1.96,-0.8 -0.72,-0.8 -0.72,-1.88 0,-1.08 0.72,-1.88 0.72,-0.8 1.96,-0.8 1.24,0 1.96,0.8 0.72,0.8 0.72,1.88 z"
             style="font-family:Ubuntu;-inkscape-font-specification:Ubuntu;fill:#483737"
             id="path276378" />
          <path
             d="m 388.92727,764.92167 q 0,1.08 -0.72,1.88 -0.72,0.8 -1.96,0.8 -1.24,0 -1.96,-0.8 -0.72,-0.8 -0.72,-1.88 0,-1.08 0.72,-1.88 0.72,-0.8 1.96,-0.8 1.24,0 1.96,0.8 0.72,0.8 0.72,1.88 z m 0,-15.96 q 0,1.08 -0.72,1.88 -0.72,0.8 -1.96,0.8 -1.24,0 -1.96,-0.8 -0.72,-0.8 -0.72,-1.88 0,-1.08 0.72,-1.88 0.72,-0.8 1.96,-0.8 1.24,0 1.96,0.8 0.72,0.8 0.72,1.88 z"
             style="font-family:Ubuntu;-inkscape-font-specification:Ubuntu;fill:#483737"
             id="path276380" />
        </g>
      </g>
    </g>
  </g>
</svg>
